# File created by Blade
# Date/Time:  Thu Sep 25 14:26:36 2014
# Frame Rate: 120.000 fps
#------------------------------------------------------
:FULLY-SPECIFIED
:DEGREES
1444
root 1.220045 27.046758 -2.015928 -14.421584 80.238393 72.828059
Spine -53.465856 8.295524 3.149043
Head -105.285588 -1.902597 0.802435
LeftShoulder -27.231111 0.363248 38.443753
LeftArm 144.370843 -67.906777 -135.996897
LeftForeArm 40.085491 -0.000000 54.497622
LeftHand -34.488236 -0.000000 117.557634
LeftHandThumb1 -26.253704 0.000000 33.147579
RightShoulder -30.924687 26.540150 -64.346709
RightArm 195.710284 110.737296 205.998338
RightForeArm -46.518693 -0.000000 71.356491
RightHand -11.637206 -0.000000 -77.738432
RightHandThumb1 -24.326973 -0.000000 -32.862282
LeftUpLeg 35.814291 4.975187 24.541950
LeftLeg 83.546204 -0.000000 -0.000000
LeftFoot 13.916135 13.854830 -28.781633
LeftToeBase -45.981284 -0.000000 0.000000
RightUpLeg 33.135379 5.811304 -22.610780
RightLeg 71.563095 -0.000000 -0.000000
RightFoot -22.450796 -26.127618 10.409428
RightToeBase 3.724860 -0.000000 -0.000000
1445
root 1.181928 27.063235 -2.044984 -14.464056 80.310934 72.783429
Spine -53.538148 8.237994 3.109430
Head -105.325439 -1.801973 0.824460
LeftShoulder -27.278007 0.206092 38.442513
LeftArm 144.229903 -67.758740 -135.699388
LeftForeArm 40.278117 -0.000000 54.482046
LeftHand -34.550879 -0.000000 117.548396
LeftHandThumb1 -26.253704 0.000000 33.147579
RightShoulder -30.826254 26.473473 -64.248370
RightArm 195.334104 110.640193 205.576403
RightForeArm -46.394238 0.000000 71.242617
RightHand -11.611861 -0.000000 -77.833076
RightHandThumb1 -24.326973 -0.000000 -32.862282
LeftUpLeg 35.801140 5.020781 24.560849
LeftLeg 83.449476 -0.000000 -0.000000
LeftFoot 13.860838 13.873275 -28.755560
LeftToeBase -45.874420 -0.000000 0.000000
RightUpLeg 33.105117 5.788512 -22.615007
RightLeg 71.370803 -0.000000 -0.000000
RightFoot -22.029215 -26.113010 10.297693
RightToeBase 3.633746 -0.000000 -0.000000
1446
root 1.144120 27.079695 -2.072862 -14.556285 80.398792 72.690610
Spine -53.604254 8.240785 3.059754
Head -105.356667 -1.976516 0.866428
LeftShoulder -27.135665 0.110007 38.335115
LeftArm 144.549185 -67.889713 -135.839396
LeftForeArm 40.208925 -0.000000 54.455892
LeftHand -34.504298 -0.000000 117.437235
LeftHandThumb1 -26.253704 0.000000 33.147579
RightShoulder -30.936695 26.376234 -64.411099
RightArm 195.259747 110.658648 205.647357
RightForeArm -46.357758 -0.000000 71.170123
RightHand -11.499081 -0.000000 -77.851221
RightHandThumb1 -24.326973 -0.000000 -32.862282
LeftUpLeg 35.789105 5.051241 24.604856
LeftLeg 83.359495 -0.000000 -0.000000
LeftFoot 13.785393 13.893705 -28.742337
LeftToeBase -45.742394 -0.000000 0.000000
RightUpLeg 33.051039 5.754759 -22.602334
RightLeg 71.169461 -0.000000 -0.000000
RightFoot -21.497119 -26.221361 10.174521
RightToeBase 3.518505 -0.000000 -0.000000
1447
root 1.109050 27.098498 -2.102526 -14.693493 80.472425 72.590956
Spine -53.587496 8.204917 3.046879
Head -105.387483 -2.128429 0.947205
LeftShoulder -27.105228 0.220028 38.328850
LeftArm 144.975375 -67.899539 -136.349330
LeftForeArm 40.127181 -0.000000 54.619895
LeftHand -34.520559 0.000000 117.363433
LeftHandThumb1 -26.253704 0.000000 33.147579
RightShoulder -30.919153 26.346705 -64.412508
RightArm 194.754024 110.632278 205.132957
RightForeArm -46.165980 -0.000000 71.072048
RightHand -11.384646 -0.000000 -77.822826
RightHandThumb1 -24.326973 -0.000000 -32.862282
LeftUpLeg 35.833231 5.082139 24.649043
LeftLeg 83.254465 -0.000000 -0.000000
LeftFoot 13.698323 13.875871 -28.667651
LeftToeBase -45.597210 -0.000000 0.000000
RightUpLeg 33.035953 5.746271 -22.598125
RightLeg 70.959123 -0.000000 -0.000000
RightFoot -21.009958 -26.271285 10.115757
RightToeBase 3.435278 -0.000000 -0.000000
1448
root 1.071401 27.116198 -2.128250 -14.892508 80.583493 72.371468
Spine -53.678912 8.068185 3.026182
Head -105.448029 -2.057037 1.027887
LeftShoulder -27.172925 0.910935 38.546062
LeftArm 145.547124 -67.606438 -137.665662
LeftForeArm 40.112049 0.000000 55.186556
LeftHand -34.681164 -0.000000 117.041811
LeftHandThumb1 -26.253704 0.000000 33.147579
RightShoulder -30.859497 26.403626 -64.316418
RightArm 194.312581 110.685975 204.581834
RightForeArm -45.978628 -0.000000 70.876344
RightHand -11.305941 -0.000000 -78.008527
RightHandThumb1 -24.326973 -0.000000 -32.862282
LeftUpLeg 35.792501 5.089231 24.694752
LeftLeg 83.156266 -0.000000 -0.000000
LeftFoot 13.664064 13.882059 -28.571357
LeftToeBase -45.590503 -0.000000 0.000000
RightUpLeg 32.978944 5.677144 -22.570423
RightLeg 70.759142 -0.000000 -0.000000
RightFoot -20.477272 -26.346858 10.037650
RightToeBase 3.309229 -0.000000 -0.000000
1449
root 1.032276 27.135947 -2.160894 -14.646193 80.763104 72.622857
Spine -53.750799 7.874238 2.888625
Head -105.431560 -1.975248 1.085679
LeftShoulder -27.323757 1.290030 38.639004
LeftArm 145.818141 -67.168777 -138.202031
LeftForeArm 40.208590 -0.000000 55.356697
LeftHand -34.629659 -0.000000 117.135266
LeftHandThumb1 -26.253704 0.000000 33.147579
RightShoulder -30.834920 26.422541 -64.162633
RightArm 194.024981 110.728592 204.159068
RightForeArm -45.793877 -0.000000 70.702584
RightHand -11.183009 -0.000000 -78.096072
RightHandThumb1 -24.326973 -0.000000 -32.862282
LeftUpLeg 35.738583 5.050394 24.612940
LeftLeg 83.057940 -0.000000 -0.000000
LeftFoot 13.646743 13.862359 -28.451199
LeftToeBase -45.615476 -0.000000 0.000000
RightUpLeg 32.944934 5.579197 -22.654439
RightLeg 70.541557 -0.000000 -0.000000
RightFoot -19.798281 -26.444585 9.827101
RightToeBase 3.201603 -0.000000 -0.000000
1450
root 0.992752 27.154376 -2.191780 -14.667799 80.891074 72.632967
Spine -53.799493 7.806677 2.813264
Head -105.411585 -2.107603 1.259139
LeftShoulder -27.161683 0.311266 38.487712
LeftArm 145.052639 -67.889818 -136.539641
LeftForeArm 40.123712 -0.000000 54.965679
LeftHand -34.537143 -0.000000 117.105992
LeftHandThumb1 -26.253704 0.000000 33.147579
RightShoulder -31.008931 26.501013 -64.311431
RightArm 194.064261 110.916880 204.257656
RightForeArm -45.763539 0.000000 70.624335
RightHand -11.178229 0.000000 -78.131461
RightHandThumb1 -24.326973 -0.000000 -32.862282
LeftUpLeg 35.735738 5.050396 24.600885
LeftLeg 82.946330 -0.000000 -0.000000
LeftFoot 13.590962 13.932201 -28.363731
LeftToeBase -45.554807 -0.000000 0.000000
RightUpLeg 32.909710 5.552067 -22.654280
RightLeg 70.362665 -0.000000 -0.000000
RightFoot -19.171752 -26.451874 9.710385
RightToeBase 3.104967 -0.000000 -0.000000
1451
root 0.955998 27.177736 -2.224707 -14.522457 81.053728 72.822065
Spine -53.824099 7.661768 2.716430
Head -105.434707 -2.114713 1.367380
LeftShoulder -27.055650 0.187015 38.552430
LeftArm 145.182025 -68.229289 -136.603241
LeftForeArm 40.110619 -0.000000 55.055735
LeftHand -34.736466 -0.000000 117.203103
LeftHandThumb1 -26.253704 0.000000 33.147579
RightShoulder -30.888038 26.439871 -64.177350
RightArm 193.518187 110.836742 203.624302
RightForeArm -45.513967 -0.000000 70.491623
RightHand -11.053125 -0.000000 -78.251226
RightHandThumb1 -24.326973 -0.000000 -32.862282
LeftUpLeg 35.741516 5.042590 24.570230
LeftLeg 82.832028 -0.000000 -0.000000
LeftFoot 13.526646 14.012146 -28.159057
LeftToeBase -45.388028 -0.000000 0.000000
RightUpLeg 32.889208 5.489811 -22.706200
RightLeg 70.193703 -0.000000 -0.000000
RightFoot -18.438760 -26.493300 9.540471
RightToeBase 2.888651 -0.000000 -0.000000
1452
root 0.912992 27.194933 -2.260805 -14.183789 81.191309 73.122641
Spine -53.965452 7.554674 2.600093
Head -105.373316 -2.101555 1.398764
LeftShoulder -27.039444 0.246534 38.571237
LeftArm 145.249574 -68.355589 -136.679294
LeftForeArm 40.008162 -0.000000 55.146727
LeftHand -34.740333 -0.000000 117.106960
LeftHandThumb1 -26.253704 0.000000 33.147579
RightShoulder -30.773802 26.368688 -64.046146
RightArm 193.021608 110.807634 203.030619
RightForeArm -45.244864 -0.000000 70.352747
RightHand -10.917220 0.000000 -78.329988
RightHandThumb1 -24.326973 -0.000000 -32.862282
LeftUpLeg 35.636721 5.097378 24.494719
LeftLeg 82.738841 -0.000000 -0.000000
LeftFoot 13.523336 14.149921 -28.050889
LeftToeBase -45.258870 -0.000000 0.000000
RightUpLeg 32.726083 5.432002 -22.765945
RightLeg 70.105844 -0.000000 -0.000000
RightFoot -17.578738 -26.556762 9.250676
RightToeBase 2.547063 -0.000000 -0.000000
1453
root 0.878198 27.222893 -2.292785 -14.471552 81.303076 72.933203
Spine -53.943256 7.529115 2.599498
Head -105.324797 -2.205495 1.477857
LeftShoulder -26.953795 0.361832 38.563418
LeftArm 145.543957 -68.371774 -137.093831
LeftForeArm 40.023750 -0.000000 55.274266
LeftHand -34.741816 -0.000000 117.128581
LeftHandThumb1 -26.253704 0.000000 33.147579
RightShoulder -30.811615 26.315620 -64.155940
RightArm 192.916963 110.825835 202.989137
RightForeArm -45.151199 -0.000000 70.285937
RightHand -11.331920 -0.000000 -78.537609
RightHandThumb1 -24.326973 -0.000000 -32.862282
LeftUpLeg 35.705628 5.093169 24.532664
LeftLeg 82.602692 -0.000000 -0.000000
LeftFoot 13.586681 14.324878 -27.882414
LeftToeBase -45.243515 -0.000000 0.000000
RightUpLeg 32.696251 5.419158 -22.752086
RightLeg 70.043062 -0.000000 -0.000000
RightFoot -16.705942 -26.560740 9.220483
RightToeBase 2.145458 -0.000000 -0.000000
1454
root 0.836968 27.247682 -2.328819 -14.182099 81.422883 73.227982
Spine -54.062699 7.374069 2.505586
Head -105.242369 -2.057671 1.682794
LeftShoulder -27.114462 1.338107 38.796083
LeftArm 146.191219 -67.724424 -138.651140
LeftForeArm 40.083668 -0.000000 55.921878
LeftHand -34.841419 -0.000000 116.809372
LeftHandThumb1 -26.253704 0.000000 33.147579
RightShoulder -30.652919 26.438552 -64.008579
RightArm 192.283204 110.974002 202.205465
RightForeArm -44.954865 -0.000000 70.051804
RightHand -11.544551 0.000000 -78.626859
RightHandThumb1 -24.326973 -0.000000 -32.862282
LeftUpLeg 35.664275 5.162317 24.491630
LeftLeg 82.472203 -0.000000 -0.000000
LeftFoot 13.665745 14.545252 -27.695398
LeftToeBase -45.218100 -0.000000 0.000000
RightUpLeg 32.503849 5.404490 -22.822058
RightLeg 70.032746 -0.000000 -0.000000
RightFoot -15.629825 -26.498907 8.883108
RightToeBase 1.819598 -0.000000 -0.000000
1455
root 0.804857 27.281717 -2.359258 -14.319283 81.531253 73.257156
Spine -53.899518 7.236759 2.501501
Head -105.295922 -2.048739 1.830216
LeftShoulder -27.399360 1.756663 38.892208
LeftArm 146.158049 -67.236199 -139.071363
LeftForeArm 40.265959 0.000000 56.290335
LeftHand -35.003399 -0.000000 116.566669
LeftHandThumb1 -26.253704 0.000000 33.147579
RightShoulder -30.661531 26.533795 -63.964299
RightArm 191.909390 111.018213 201.778520
RightForeArm -44.774491 -0.000000 69.910463
RightHand -11.397546 -0.000000 -78.712481
RightHandThumb1 -24.326973 -0.000000 -32.862282
LeftUpLeg 35.818797 5.159767 24.551509
LeftLeg 82.305679 -0.000000 -0.000000
LeftFoot 13.732805 14.744246 -27.464498
LeftToeBase -45.107823 -0.000000 0.000000
RightUpLeg 32.502706 5.457676 -22.824440
RightLeg 70.048669 -0.000000 -0.000000
RightFoot -14.398345 -26.463550 8.319519
RightToeBase 1.208464 -0.000000 -0.000000
